<mxfile host="app.diagrams.net" modified="2024-03-18T21:24:00.263Z" agent="Mozilla/5.0 (Windows NT 10.0; Win64; x64) AppleWebKit/537.36 (KHTML, like Gecko) Chrome/122.0.0.0 Safari/537.36" etag="zdsHjfZKR38vLUk7__o0" version="24.0.7" type="device">
  <diagram name="Página-1" id="HkMOw-PyzBdyyvqn8d9b">
    <mxGraphModel dx="2084" dy="634" grid="1" gridSize="10" guides="1" tooltips="1" connect="1" arrows="1" fold="1" page="1" pageScale="1" pageWidth="827" pageHeight="1169" math="0" shadow="0">
      <root>
        <mxCell id="0" />
        <mxCell id="1" parent="0" />
        <mxCell id="YDKdR6mCtwhiDrKHgajt-29" value="Compras" style="swimlane;html=1;startSize=20;fontStyle=0;collapsible=0;horizontal=0;swimlaneLine=1;swimlaneFillColor=#ffffff;strokeWidth=2;whiteSpace=wrap;" vertex="1" parent="1">
          <mxGeometry y="460" width="820" height="440" as="geometry" />
        </mxCell>
        <mxCell id="YDKdR6mCtwhiDrKHgajt-23" value="Comprar produto / falar com promotor" style="points=[[0.25,0,0],[0.5,0,0],[0.75,0,0],[1,0.25,0],[1,0.5,0],[1,0.75,0],[0.75,1,0],[0.5,1,0],[0.25,1,0],[0,0.75,0],[0,0.5,0],[0,0.25,0]];shape=mxgraph.bpmn.task;whiteSpace=wrap;rectStyle=rounded;size=10;html=1;container=1;expand=0;collapsible=0;taskMarker=abstract;" vertex="1" parent="YDKdR6mCtwhiDrKHgajt-29">
          <mxGeometry x="50" y="30" width="120" height="80" as="geometry" />
        </mxCell>
        <mxCell id="YDKdR6mCtwhiDrKHgajt-30" value="Selecionar produtos da marca" style="points=[[0.25,0,0],[0.5,0,0],[0.75,0,0],[1,0.25,0],[1,0.5,0],[1,0.75,0],[0.75,1,0],[0.5,1,0],[0.25,1,0],[0,0.75,0],[0,0.5,0],[0,0.25,0]];shape=mxgraph.bpmn.task;whiteSpace=wrap;rectStyle=rounded;size=10;html=1;container=1;expand=0;collapsible=0;taskMarker=abstract;" vertex="1" parent="YDKdR6mCtwhiDrKHgajt-29">
          <mxGeometry x="50" y="140" width="120" height="80" as="geometry" />
        </mxCell>
        <mxCell id="YDKdR6mCtwhiDrKHgajt-31" style="edgeStyle=orthogonalEdgeStyle;rounded=0;orthogonalLoop=1;jettySize=auto;html=1;entryX=0.5;entryY=0;entryDx=0;entryDy=0;entryPerimeter=0;" edge="1" parent="YDKdR6mCtwhiDrKHgajt-29" source="YDKdR6mCtwhiDrKHgajt-23" target="YDKdR6mCtwhiDrKHgajt-30">
          <mxGeometry relative="1" as="geometry" />
        </mxCell>
        <mxCell id="YDKdR6mCtwhiDrKHgajt-32" value="Pagar Boleto" style="points=[[0.25,0,0],[0.5,0,0],[0.75,0,0],[1,0.25,0],[1,0.5,0],[1,0.75,0],[0.75,1,0],[0.5,1,0],[0.25,1,0],[0,0.75,0],[0,0.5,0],[0,0.25,0]];shape=mxgraph.bpmn.task;whiteSpace=wrap;rectStyle=rounded;size=10;html=1;container=1;expand=0;collapsible=0;taskMarker=abstract;" vertex="1" parent="YDKdR6mCtwhiDrKHgajt-29">
          <mxGeometry x="220" y="140" width="120" height="80" as="geometry" />
        </mxCell>
        <mxCell id="YDKdR6mCtwhiDrKHgajt-34" value="Vencimento boleto" style="points=[[0.145,0.145,0],[0.5,0,0],[0.855,0.145,0],[1,0.5,0],[0.855,0.855,0],[0.5,1,0],[0.145,0.855,0],[0,0.5,0]];shape=mxgraph.bpmn.event;html=1;verticalLabelPosition=bottom;labelBackgroundColor=#ffffff;verticalAlign=top;align=center;perimeter=ellipsePerimeter;outlineConnect=0;aspect=fixed;outline=standard;symbol=timer;" vertex="1" parent="YDKdR6mCtwhiDrKHgajt-32">
          <mxGeometry x="70" y="60" width="50" height="50" as="geometry" />
        </mxCell>
        <mxCell id="YDKdR6mCtwhiDrKHgajt-33" style="edgeStyle=orthogonalEdgeStyle;rounded=0;orthogonalLoop=1;jettySize=auto;html=1;entryX=0;entryY=0.5;entryDx=0;entryDy=0;entryPerimeter=0;" edge="1" parent="YDKdR6mCtwhiDrKHgajt-29" source="YDKdR6mCtwhiDrKHgajt-30" target="YDKdR6mCtwhiDrKHgajt-32">
          <mxGeometry relative="1" as="geometry" />
        </mxCell>
        <mxCell id="YDKdR6mCtwhiDrKHgajt-35" value="" style="points=[[0.25,0.25,0],[0.5,0,0],[0.75,0.25,0],[1,0.5,0],[0.75,0.75,0],[0.5,1,0],[0.25,0.75,0],[0,0.5,0]];shape=mxgraph.bpmn.gateway2;html=1;verticalLabelPosition=bottom;labelBackgroundColor=#ffffff;verticalAlign=top;align=center;perimeter=rhombusPerimeter;outlineConnect=0;outline=none;symbol=none;gwType=exclusive;" vertex="1" parent="YDKdR6mCtwhiDrKHgajt-29">
          <mxGeometry x="389" y="155" width="50" height="50" as="geometry" />
        </mxCell>
        <mxCell id="YDKdR6mCtwhiDrKHgajt-36" style="edgeStyle=orthogonalEdgeStyle;rounded=0;orthogonalLoop=1;jettySize=auto;html=1;exitX=1;exitY=0.5;exitDx=0;exitDy=0;exitPerimeter=0;entryX=0;entryY=0.5;entryDx=0;entryDy=0;entryPerimeter=0;" edge="1" parent="YDKdR6mCtwhiDrKHgajt-29" source="YDKdR6mCtwhiDrKHgajt-32" target="YDKdR6mCtwhiDrKHgajt-35">
          <mxGeometry relative="1" as="geometry" />
        </mxCell>
        <mxCell id="YDKdR6mCtwhiDrKHgajt-40" value="Aguardar prazo de entrega" style="points=[[0.25,0,0],[0.5,0,0],[0.75,0,0],[1,0.25,0],[1,0.5,0],[1,0.75,0],[0.75,1,0],[0.5,1,0],[0.25,1,0],[0,0.75,0],[0,0.5,0],[0,0.25,0]];shape=mxgraph.bpmn.task;whiteSpace=wrap;rectStyle=rounded;size=10;html=1;container=1;expand=0;collapsible=0;taskMarker=abstract;" vertex="1" parent="YDKdR6mCtwhiDrKHgajt-29">
          <mxGeometry x="460" y="205" width="120" height="80" as="geometry" />
        </mxCell>
        <mxCell id="YDKdR6mCtwhiDrKHgajt-45" value="" style="points=[[0.145,0.145,0],[0.5,0,0],[0.855,0.145,0],[1,0.5,0],[0.855,0.855,0],[0.5,1,0],[0.145,0.855,0],[0,0.5,0]];shape=mxgraph.bpmn.event;html=1;verticalLabelPosition=bottom;labelBackgroundColor=#ffffff;verticalAlign=top;align=center;perimeter=ellipsePerimeter;outlineConnect=0;aspect=fixed;outline=standard;symbol=timer;" vertex="1" parent="YDKdR6mCtwhiDrKHgajt-40">
          <mxGeometry x="50" y="65" width="50" height="50" as="geometry" />
        </mxCell>
        <mxCell id="YDKdR6mCtwhiDrKHgajt-41" style="edgeStyle=orthogonalEdgeStyle;rounded=0;orthogonalLoop=1;jettySize=auto;html=1;exitX=0.5;exitY=1;exitDx=0;exitDy=0;exitPerimeter=0;entryX=0;entryY=0.5;entryDx=0;entryDy=0;entryPerimeter=0;" edge="1" parent="YDKdR6mCtwhiDrKHgajt-29" source="YDKdR6mCtwhiDrKHgajt-35" target="YDKdR6mCtwhiDrKHgajt-40">
          <mxGeometry relative="1" as="geometry" />
        </mxCell>
        <mxCell id="YDKdR6mCtwhiDrKHgajt-43" value="" style="points=[[0.25,0.25,0],[0.5,0,0],[0.75,0.25,0],[1,0.5,0],[0.75,0.75,0],[0.5,1,0],[0.25,0.75,0],[0,0.5,0]];shape=mxgraph.bpmn.gateway2;html=1;verticalLabelPosition=bottom;labelBackgroundColor=#ffffff;verticalAlign=top;align=center;perimeter=rhombusPerimeter;outlineConnect=0;outline=none;symbol=none;" vertex="1" parent="YDKdR6mCtwhiDrKHgajt-29">
          <mxGeometry x="600" y="220" width="50" height="50" as="geometry" />
        </mxCell>
        <mxCell id="YDKdR6mCtwhiDrKHgajt-44" style="edgeStyle=orthogonalEdgeStyle;rounded=0;orthogonalLoop=1;jettySize=auto;html=1;exitX=1;exitY=0.5;exitDx=0;exitDy=0;exitPerimeter=0;entryX=0;entryY=0.5;entryDx=0;entryDy=0;entryPerimeter=0;" edge="1" parent="YDKdR6mCtwhiDrKHgajt-29" source="YDKdR6mCtwhiDrKHgajt-40" target="YDKdR6mCtwhiDrKHgajt-43">
          <mxGeometry relative="1" as="geometry" />
        </mxCell>
        <mxCell id="YDKdR6mCtwhiDrKHgajt-47" value="" style="points=[[0.25,0.25,0],[0.5,0,0],[0.75,0.25,0],[1,0.5,0],[0.75,0.75,0],[0.5,1,0],[0.25,0.75,0],[0,0.5,0]];shape=mxgraph.bpmn.gateway2;html=1;verticalLabelPosition=bottom;labelBackgroundColor=#ffffff;verticalAlign=top;align=center;perimeter=rhombusPerimeter;outlineConnect=0;outline=none;symbol=none;" vertex="1" parent="YDKdR6mCtwhiDrKHgajt-29">
          <mxGeometry x="210" y="45" width="50" height="50" as="geometry" />
        </mxCell>
        <mxCell id="YDKdR6mCtwhiDrKHgajt-48" style="edgeStyle=orthogonalEdgeStyle;rounded=0;orthogonalLoop=1;jettySize=auto;html=1;entryX=1;entryY=0.5;entryDx=0;entryDy=0;entryPerimeter=0;" edge="1" parent="YDKdR6mCtwhiDrKHgajt-29" source="YDKdR6mCtwhiDrKHgajt-47" target="YDKdR6mCtwhiDrKHgajt-23">
          <mxGeometry relative="1" as="geometry" />
        </mxCell>
        <mxCell id="YDKdR6mCtwhiDrKHgajt-49" style="edgeStyle=orthogonalEdgeStyle;rounded=0;orthogonalLoop=1;jettySize=auto;html=1;entryX=0.5;entryY=0;entryDx=0;entryDy=0;entryPerimeter=0;" edge="1" parent="YDKdR6mCtwhiDrKHgajt-29" source="YDKdR6mCtwhiDrKHgajt-45" target="YDKdR6mCtwhiDrKHgajt-47">
          <mxGeometry relative="1" as="geometry">
            <Array as="points">
              <mxPoint x="535" y="410" />
              <mxPoint x="40" y="410" />
              <mxPoint x="40" y="10" />
              <mxPoint x="235" y="10" />
            </Array>
          </mxGeometry>
        </mxCell>
        <mxCell id="YDKdR6mCtwhiDrKHgajt-50" value="Prazo expirado" style="edgeLabel;html=1;align=center;verticalAlign=middle;resizable=0;points=[];" vertex="1" connectable="0" parent="YDKdR6mCtwhiDrKHgajt-49">
          <mxGeometry x="-0.4241" relative="1" as="geometry">
            <mxPoint as="offset" />
          </mxGeometry>
        </mxCell>
        <mxCell id="YDKdR6mCtwhiDrKHgajt-26" value="Reposiçãio" style="swimlane;html=1;startSize=20;fontStyle=0;collapsible=0;horizontal=0;swimlaneLine=1;swimlaneFillColor=#ffffff;strokeWidth=2;whiteSpace=wrap;" vertex="1" parent="1">
          <mxGeometry y="100" width="820" height="360" as="geometry" />
        </mxCell>
        <mxCell id="YDKdR6mCtwhiDrKHgajt-1" value="&lt;font style=&quot;vertical-align: inherit;&quot;&gt;&lt;font style=&quot;vertical-align: inherit;&quot;&gt;&lt;font style=&quot;vertical-align: inherit;&quot;&gt;&lt;font style=&quot;vertical-align: inherit;&quot;&gt;Gôndula vazia&lt;/font&gt;&lt;/font&gt;&lt;/font&gt;&lt;/font&gt;" style="points=[[0.145,0.145,0],[0.5,0,0],[0.855,0.145,0],[1,0.5,0],[0.855,0.855,0],[0.5,1,0],[0.145,0.855,0],[0,0.5,0]];shape=mxgraph.bpmn.event;html=1;verticalLabelPosition=bottom;labelBackgroundColor=#ffffff;verticalAlign=top;align=center;perimeter=ellipsePerimeter;outlineConnect=0;aspect=fixed;outline=standard;symbol=general;" vertex="1" parent="1">
          <mxGeometry x="40" y="200" width="50" height="50" as="geometry" />
        </mxCell>
        <mxCell id="YDKdR6mCtwhiDrKHgajt-2" style="edgeStyle=orthogonalEdgeStyle;rounded=0;orthogonalLoop=1;jettySize=auto;html=1;exitX=1;exitY=0.5;exitDx=0;exitDy=0;exitPerimeter=0;" edge="1" parent="1" source="YDKdR6mCtwhiDrKHgajt-3" target="YDKdR6mCtwhiDrKHgajt-5">
          <mxGeometry relative="1" as="geometry" />
        </mxCell>
        <mxCell id="YDKdR6mCtwhiDrKHgajt-3" value="&lt;font style=&quot;vertical-align: inherit;&quot;&gt;&lt;font style=&quot;vertical-align: inherit;&quot;&gt;Consultar estoque do produto&lt;/font&gt;&lt;/font&gt;" style="points=[[0.25,0,0],[0.5,0,0],[0.75,0,0],[1,0.25,0],[1,0.5,0],[1,0.75,0],[0.75,1,0],[0.5,1,0],[0.25,1,0],[0,0.75,0],[0,0.5,0],[0,0.25,0]];shape=mxgraph.bpmn.task;whiteSpace=wrap;rectStyle=rounded;size=10;html=1;container=1;expand=0;collapsible=0;taskMarker=abstract;" vertex="1" parent="1">
          <mxGeometry x="160" y="185" width="120" height="80" as="geometry" />
        </mxCell>
        <mxCell id="YDKdR6mCtwhiDrKHgajt-4" style="edgeStyle=orthogonalEdgeStyle;rounded=0;orthogonalLoop=1;jettySize=auto;html=1;entryX=0;entryY=0.5;entryDx=0;entryDy=0;entryPerimeter=0;" edge="1" parent="1" source="YDKdR6mCtwhiDrKHgajt-1" target="YDKdR6mCtwhiDrKHgajt-3">
          <mxGeometry relative="1" as="geometry" />
        </mxCell>
        <mxCell id="YDKdR6mCtwhiDrKHgajt-5" value="" style="points=[[0.25,0.25,0],[0.5,0,0],[0.75,0.25,0],[1,0.5,0],[0.75,0.75,0],[0.5,1,0],[0.25,0.75,0],[0,0.5,0]];shape=mxgraph.bpmn.gateway2;html=1;verticalLabelPosition=bottom;labelBackgroundColor=#ffffff;verticalAlign=top;align=center;perimeter=rhombusPerimeter;outlineConnect=0;outline=none;symbol=none;" vertex="1" parent="1">
          <mxGeometry x="310" y="200" width="50" height="50" as="geometry" />
        </mxCell>
        <mxCell id="YDKdR6mCtwhiDrKHgajt-6" value="&lt;font style=&quot;vertical-align: inherit;&quot;&gt;&lt;font style=&quot;vertical-align: inherit;&quot;&gt;Repor produto&lt;/font&gt;&lt;/font&gt;" style="points=[[0.25,0,0],[0.5,0,0],[0.75,0,0],[1,0.25,0],[1,0.5,0],[1,0.75,0],[0.75,1,0],[0.5,1,0],[0.25,1,0],[0,0.75,0],[0,0.5,0],[0,0.25,0]];shape=mxgraph.bpmn.task;whiteSpace=wrap;rectStyle=rounded;size=10;html=1;container=1;expand=0;collapsible=0;taskMarker=abstract;" vertex="1" parent="1">
          <mxGeometry x="360" y="120" width="120" height="80" as="geometry" />
        </mxCell>
        <mxCell id="YDKdR6mCtwhiDrKHgajt-7" style="edgeStyle=orthogonalEdgeStyle;rounded=0;orthogonalLoop=1;jettySize=auto;html=1;entryX=0;entryY=0.413;entryDx=0;entryDy=0;entryPerimeter=0;" edge="1" parent="1" source="YDKdR6mCtwhiDrKHgajt-5" target="YDKdR6mCtwhiDrKHgajt-6">
          <mxGeometry relative="1" as="geometry" />
        </mxCell>
        <mxCell id="YDKdR6mCtwhiDrKHgajt-8" value="" style="points=[[0.145,0.145,0],[0.5,0,0],[0.855,0.145,0],[1,0.5,0],[0.855,0.855,0],[0.5,1,0],[0.145,0.855,0],[0,0.5,0]];shape=mxgraph.bpmn.event;html=1;verticalLabelPosition=bottom;labelBackgroundColor=#ffffff;verticalAlign=top;align=center;perimeter=ellipsePerimeter;outlineConnect=0;aspect=fixed;outline=end;symbol=terminate2;" vertex="1" parent="1">
          <mxGeometry x="763" y="185" width="50" height="50" as="geometry" />
        </mxCell>
        <mxCell id="YDKdR6mCtwhiDrKHgajt-9" value="" style="points=[[0.25,0.25,0],[0.5,0,0],[0.75,0.25,0],[1,0.5,0],[0.75,0.75,0],[0.5,1,0],[0.25,0.75,0],[0,0.5,0]];shape=mxgraph.bpmn.gateway2;html=1;verticalLabelPosition=bottom;labelBackgroundColor=#ffffff;verticalAlign=top;align=center;perimeter=rhombusPerimeter;outlineConnect=0;outline=none;symbol=none;" vertex="1" parent="1">
          <mxGeometry x="698" y="185" width="50" height="50" as="geometry" />
        </mxCell>
        <mxCell id="YDKdR6mCtwhiDrKHgajt-10" style="edgeStyle=orthogonalEdgeStyle;rounded=0;orthogonalLoop=1;jettySize=auto;html=1;entryX=0;entryY=0.5;entryDx=0;entryDy=0;entryPerimeter=0;" edge="1" parent="1" source="YDKdR6mCtwhiDrKHgajt-6" target="YDKdR6mCtwhiDrKHgajt-9">
          <mxGeometry relative="1" as="geometry" />
        </mxCell>
        <mxCell id="YDKdR6mCtwhiDrKHgajt-11" style="edgeStyle=orthogonalEdgeStyle;rounded=0;orthogonalLoop=1;jettySize=auto;html=1;entryX=0;entryY=0.5;entryDx=0;entryDy=0;entryPerimeter=0;" edge="1" parent="1" source="YDKdR6mCtwhiDrKHgajt-9" target="YDKdR6mCtwhiDrKHgajt-8">
          <mxGeometry relative="1" as="geometry" />
        </mxCell>
        <mxCell id="YDKdR6mCtwhiDrKHgajt-12" value="&lt;font style=&quot;vertical-align: inherit;&quot;&gt;&lt;font style=&quot;vertical-align: inherit;&quot;&gt;Produto não encontrado&lt;/font&gt;&lt;/font&gt;" style="points=[[0.25,0,0],[0.5,0,0],[0.75,0,0],[1,0.25,0],[1,0.5,0],[1,0.75,0],[0.75,1,0],[0.5,1,0],[0.25,1,0],[0,0.75,0],[0,0.5,0],[0,0.25,0]];shape=mxgraph.bpmn.task;whiteSpace=wrap;rectStyle=rounded;size=10;html=1;container=1;expand=0;collapsible=0;taskMarker=abstract;" vertex="1" parent="1">
          <mxGeometry x="354" y="250" width="120" height="80" as="geometry" />
        </mxCell>
        <mxCell id="YDKdR6mCtwhiDrKHgajt-13" style="edgeStyle=orthogonalEdgeStyle;rounded=0;orthogonalLoop=1;jettySize=auto;html=1;entryX=0;entryY=0.5;entryDx=0;entryDy=0;entryPerimeter=0;" edge="1" parent="1" source="YDKdR6mCtwhiDrKHgajt-5" target="YDKdR6mCtwhiDrKHgajt-12">
          <mxGeometry relative="1" as="geometry" />
        </mxCell>
        <mxCell id="YDKdR6mCtwhiDrKHgajt-15" style="edgeStyle=orthogonalEdgeStyle;rounded=0;orthogonalLoop=1;jettySize=auto;html=1;entryX=0.5;entryY=0;entryDx=0;entryDy=0;entryPerimeter=0;" edge="1" parent="1" source="YDKdR6mCtwhiDrKHgajt-12" target="YDKdR6mCtwhiDrKHgajt-16">
          <mxGeometry relative="1" as="geometry">
            <mxPoint x="420" y="460" as="targetPoint" />
          </mxGeometry>
        </mxCell>
        <mxCell id="YDKdR6mCtwhiDrKHgajt-16" value="" style="points=[[0.25,0.25,0],[0.5,0,0],[0.75,0.25,0],[1,0.5,0],[0.75,0.75,0],[0.5,1,0],[0.25,0.75,0],[0,0.5,0]];shape=mxgraph.bpmn.gateway2;html=1;verticalLabelPosition=bottom;labelBackgroundColor=#ffffff;verticalAlign=top;align=center;perimeter=rhombusPerimeter;outlineConnect=0;outline=none;symbol=none;gwType=parallel;" vertex="1" parent="1">
          <mxGeometry x="389" y="380" width="50" height="50" as="geometry" />
        </mxCell>
        <mxCell id="YDKdR6mCtwhiDrKHgajt-17" value="repor outros produtos" style="points=[[0.25,0,0],[0.5,0,0],[0.75,0,0],[1,0.25,0],[1,0.5,0],[1,0.75,0],[0.75,1,0],[0.5,1,0],[0.25,1,0],[0,0.75,0],[0,0.5,0],[0,0.25,0]];shape=mxgraph.bpmn.task;whiteSpace=wrap;rectStyle=rounded;size=10;html=1;container=1;expand=0;collapsible=0;taskMarker=abstract;" vertex="1" parent="1">
          <mxGeometry x="500" y="365" width="120" height="80" as="geometry" />
        </mxCell>
        <mxCell id="YDKdR6mCtwhiDrKHgajt-18" value="" style="points=[[0.25,0.25,0],[0.5,0,0],[0.75,0.25,0],[1,0.5,0],[0.75,0.75,0],[0.5,1,0],[0.25,0.75,0],[0,0.5,0]];shape=mxgraph.bpmn.gateway2;html=1;verticalLabelPosition=bottom;labelBackgroundColor=#ffffff;verticalAlign=top;align=center;perimeter=rhombusPerimeter;outlineConnect=0;outline=none;symbol=none;gwType=parallel;" vertex="1" parent="1">
          <mxGeometry x="670" y="380" width="50" height="50" as="geometry" />
        </mxCell>
        <mxCell id="YDKdR6mCtwhiDrKHgajt-20" style="edgeStyle=orthogonalEdgeStyle;rounded=0;orthogonalLoop=1;jettySize=auto;html=1;entryX=0;entryY=0.5;entryDx=0;entryDy=0;entryPerimeter=0;" edge="1" parent="1" source="YDKdR6mCtwhiDrKHgajt-16" target="YDKdR6mCtwhiDrKHgajt-17">
          <mxGeometry relative="1" as="geometry" />
        </mxCell>
        <mxCell id="YDKdR6mCtwhiDrKHgajt-21" style="edgeStyle=orthogonalEdgeStyle;rounded=0;orthogonalLoop=1;jettySize=auto;html=1;exitX=1;exitY=0.5;exitDx=0;exitDy=0;exitPerimeter=0;entryX=0;entryY=0.5;entryDx=0;entryDy=0;entryPerimeter=0;" edge="1" parent="1" source="YDKdR6mCtwhiDrKHgajt-17" target="YDKdR6mCtwhiDrKHgajt-18">
          <mxGeometry relative="1" as="geometry" />
        </mxCell>
        <mxCell id="YDKdR6mCtwhiDrKHgajt-22" style="edgeStyle=orthogonalEdgeStyle;rounded=0;orthogonalLoop=1;jettySize=auto;html=1;entryX=0.5;entryY=1;entryDx=0;entryDy=0;entryPerimeter=0;" edge="1" parent="1" source="YDKdR6mCtwhiDrKHgajt-18" target="YDKdR6mCtwhiDrKHgajt-9">
          <mxGeometry relative="1" as="geometry" />
        </mxCell>
        <mxCell id="YDKdR6mCtwhiDrKHgajt-27" style="edgeStyle=orthogonalEdgeStyle;rounded=0;orthogonalLoop=1;jettySize=auto;html=1;exitX=0.5;exitY=1;exitDx=0;exitDy=0;exitPerimeter=0;entryX=1;entryY=0.5;entryDx=0;entryDy=0;entryPerimeter=0;" edge="1" parent="1" source="YDKdR6mCtwhiDrKHgajt-16" target="YDKdR6mCtwhiDrKHgajt-47">
          <mxGeometry relative="1" as="geometry">
            <mxPoint x="310" y="530" as="targetPoint" />
            <Array as="points">
              <mxPoint x="414" y="530" />
            </Array>
          </mxGeometry>
        </mxCell>
        <mxCell id="YDKdR6mCtwhiDrKHgajt-38" style="edgeStyle=orthogonalEdgeStyle;rounded=0;orthogonalLoop=1;jettySize=auto;html=1;exitX=1;exitY=0.5;exitDx=0;exitDy=0;exitPerimeter=0;entryX=0.75;entryY=0.75;entryDx=0;entryDy=0;entryPerimeter=0;" edge="1" parent="1" source="YDKdR6mCtwhiDrKHgajt-35" target="YDKdR6mCtwhiDrKHgajt-9">
          <mxGeometry relative="1" as="geometry">
            <mxPoint x="780" y="300" as="targetPoint" />
            <Array as="points">
              <mxPoint x="736" y="640" />
              <mxPoint x="736" y="250" />
            </Array>
          </mxGeometry>
        </mxCell>
        <mxCell id="YDKdR6mCtwhiDrKHgajt-39" value="Não Pago" style="edgeLabel;html=1;align=center;verticalAlign=middle;resizable=0;points=[];" vertex="1" connectable="0" parent="YDKdR6mCtwhiDrKHgajt-38">
          <mxGeometry x="0.0168" y="-1" relative="1" as="geometry">
            <mxPoint x="13" as="offset" />
          </mxGeometry>
        </mxCell>
        <mxCell id="YDKdR6mCtwhiDrKHgajt-42" style="edgeStyle=orthogonalEdgeStyle;rounded=0;orthogonalLoop=1;jettySize=auto;html=1;entryX=0.5;entryY=1;entryDx=0;entryDy=0;entryPerimeter=0;exitX=1;exitY=0.5;exitDx=0;exitDy=0;exitPerimeter=0;" edge="1" parent="1" source="YDKdR6mCtwhiDrKHgajt-43" target="YDKdR6mCtwhiDrKHgajt-18">
          <mxGeometry relative="1" as="geometry">
            <mxPoint x="695" y="720" as="sourcePoint" />
          </mxGeometry>
        </mxCell>
      </root>
    </mxGraphModel>
  </diagram>
</mxfile>
